<?xml version="1.0" encoding="utf-8"?>
<!-- Generator: Adobe Illustrator 23.1.1, SVG Export Plug-In . SVG Version: 6.00 Build 0)  -->
<svg version="1.1" id="Livello_1" xmlns="http://www.w3.org/2000/svg" xmlns:xlink="http://www.w3.org/1999/xlink" x="0px" y="0px"
	 viewBox="0 0 75 19.3" style="enable-background:new 0 0 75 19.3;" xml:space="preserve">
<style type="text/css">
	.st0{fill:#FFFFFF;}
</style>
<g>
	<polygon class="st0" points="0,18.8 4.5,18.8 4.5,12.1 9.4,12.1 9.4,8.3 4.5,8.3 4.5,5.5 10,5.6 10,1.8 0,1.8 	"/>
	<path class="st0" d="M16.6,8.9V7h-4.2v11.8h4.2V14c0-2.1,0.6-3.6,2.9-3.6c0.6,0,1.3,0.1,1.8,0.4v-4h-0.8
		C18.9,6.7,17.4,7.5,16.6,8.9z"/>
	<path class="st0" d="M31.6,8.1c-1-1-2.3-1.5-3.7-1.5c-3.2,0.2-5.7,2.7-5.9,5.9c-0.1,3.5,2.5,6.5,6,6.7c1.4,0.1,2.8-0.6,3.6-1.7v1.3
		h4.2V7h-4.2V8.1z M29,15.6c-1.5,0-2.7-1.2-2.7-2.7s1.2-2.7,2.7-2.7s2.7,1.2,2.7,2.7S30.5,15.6,29,15.6z"/>
	<path class="st0" d="M46.6,6.6c-1.5-0.1-3,0.6-3.8,1.9V7h-4.2v11.7h4.1v-6.1c0-1.4,0.5-2.7,2.2-2.7c2.1,0,1.9,2,1.9,3.1v5.8H51
		v-7.3C51,8.6,49.8,6.6,46.6,6.6z"/>
	<polygon class="st0" points="68.1,7.2 62.4,7.2 58.1,11.4 58,11.4 58,0 53.8,0 53.8,18.8 58,18.8 58,14.1 62.6,18.8 68.5,18.8 
		62.2,12.6 	"/>
	<circle class="st0" cx="72.3" cy="16.6" r="2.7"/>
</g>
</svg>
